<?xml version="1.0" encoding="UTF-8"?>
<svg version="1.1" xmlns="http://www.w3.org/2000/svg" width="1024" height="1024">
<path d="M0 0 C337.92 0 675.84 0 1024 0 C1024 337.92 1024 675.84 1024 1024 C686.08 1024 348.16 1024 0 1024 C0 686.08 0 348.16 0 0 Z " fill="#F5F5EF" transform="translate(0,0)"/>
<path d="M0 0 C3.75894244 3.55808292 6.79420716 7.50835765 7.22705078 12.74902344 C7.21657715 13.77543945 7.20610352 14.80185547 7.1953125 15.859375 C7.18886719 16.97441406 7.18242188 18.08945312 7.17578125 19.23828125 C7.15064453 20.97658203 7.15064453 20.97658203 7.125 22.75 C7.11597656 23.92433594 7.10695313 25.09867187 7.09765625 26.30859375 C7.07410063 29.20593536 7.04120652 32.10286441 7 35 C7.63421875 35.28617187 8.2684375 35.57234375 8.921875 35.8671875 C11.41561201 37.22655542 11.96432124 38.41080309 13 41 C10.69 41 8.38 41 6 41 C6.01332367 41.9034465 6.02664734 42.80689301 6.04037476 43.73771667 C6.16065484 52.25668602 6.25197622 60.77536976 6.31087303 69.2949934 C6.34217106 73.67497704 6.38461433 78.05425843 6.45263672 82.43383789 C6.51788628 86.6614044 6.55371755 90.88829605 6.56926346 95.11632729 C6.58034 96.72834205 6.60197101 98.34032034 6.63438034 99.95204735 C6.67802333 102.21257336 6.6839316 104.47032086 6.68115234 106.73120117 C6.69447601 108.01693527 6.70779968 109.30266937 6.7215271 110.62736511 C5.70814295 115.3642277 3.97949208 116.33288953 0 119 C-7.34626367 121.759004 -14.98977673 121.29582809 -22.75 121.25 C-24.69132812 121.26160156 -24.69132812 121.26160156 -26.671875 121.2734375 C-46.44022877 121.23358195 -46.44022877 121.23358195 -53.1875 117 C-56.43730428 113.41400907 -56.12183692 110.93439038 -56.11352539 106.16357422 C-56.11367142 105.46102509 -56.11381744 104.75847595 -56.1139679 104.03463745 C-56.11327014 101.70795627 -56.10548419 99.38135473 -56.09765625 97.0546875 C-56.09579158 95.44328861 -56.09436791 93.83188916 -56.09336853 92.2204895 C-56.0895472 87.97571248 -56.07972018 83.73096958 -56.06866455 79.48620605 C-56.05844218 75.15617332 -56.05386914 70.82613507 -56.04882812 66.49609375 C-56.03809758 57.99738016 -56.02102575 49.49869432 -56 41 C-58.31 41 -60.62 41 -63 41 C-61.94824792 38.4582658 -61.32538085 37.20266512 -58.95117188 35.72387695 C-56.74400433 34.13153404 -56.74400433 34.13153404 -56.51757812 31.36791992 C-56.52208984 30.33256104 -56.52660156 29.29720215 -56.53125 28.23046875 C-56.51707031 27.09416016 -56.50289063 25.95785156 -56.48828125 24.78710938 C-56.4960556 22.39908842 -56.50386772 20.01106758 -56.51171875 17.62304688 C-56.37710155 6.79860022 -56.37710155 6.79860022 -52 2 C-39.72636879 -9.93269701 -13.64767204 -9.36187748 0 0 Z " fill="#3B99CB" transform="translate(508,446)"/>
<path d="M0 0 C3.29714793 0.32971479 4.6226839 0.6226839 7 3 C6.625 5.625 6.625 5.625 6 8 C5.01 8.33 4.02 8.66 3 9 C3.08121094 9.9178125 3.16242187 10.835625 3.24609375 11.78125 C3.30925781 13.0084375 3.37242187 14.235625 3.4375 15.5 C3.51871094 16.7065625 3.59992187 17.913125 3.68359375 19.15625 C2.93135372 23.38598824 2.49342647 23.69673064 -0.48022461 26.42041016 C-5.33819881 31.79778749 -5.04605129 37.14129822 -5 44.1171875 C-5.01144043 45.36952179 -5.02288086 46.62185608 -5.03466797 47.91213989 C-5.04816383 50.55467396 -5.04714552 53.1924972 -5.02246094 55.83447266 C-4.99950898 58.52620036 -5.01334027 61.21342974 -5.06347656 63.90478516 C-5.1313485 67.81028918 -5.13704324 71.7111948 -5.125 75.6171875 C-5.16173828 77.40514236 -5.16173828 77.40514236 -5.19921875 79.22921753 C-5.0406333 87.44016877 -2.93942963 91.3887442 2.97314453 97.087677 C3.64200684 97.71874359 4.31086914 98.34981018 5 99 C5.33 99.66 5.66 100.32 6 101 C5.96589523 100.43275711 5.93179047 99.86551422 5.89665222 99.28108215 C3.31831564 53.6188012 3.31831564 53.6188012 12.65673828 41.03857422 C21.70908027 31.73472977 30.54529725 29.88432166 43.06567383 29.63110352 C50.74549691 29.6404891 58.3665516 30.19371221 66 31 C66.66 29.68 67.32 28.36 68 27 C70.375 26.8125 70.375 26.8125 73 27 C75 30 75 30 74.6875 32.625 C74 35 74 35 73 36 C70.66055264 35.71269945 68.3260857 35.38063221 66 35 C66 34.01 66 33.02 66 32 C41.66785181 29.86426532 41.66785181 29.86426532 19.23828125 37.58569336 C10.13729733 45.53076173 8.33187023 53.98756963 7.53515625 65.5859375 C7.32091981 70.28887625 7.25020143 74.9799668 7.25 79.6875 C7.24793549 80.85745514 7.24587097 82.02741028 7.2437439 83.2328186 C7.27153062 86.64355701 7.37468763 90.04141774 7.515625 93.44921875 C7.53806778 94.47691376 7.56051056 95.50460876 7.58363342 96.56344604 C8.16565995 105.58995448 10.19362542 106.34282859 17 114 C17.33 96.84 17.66 79.68 18 62 C25.92 62 33.84 62 42 62 C42 93.02 42 124.04 42 156 C35.07 156 28.14 156 21 156 C14.57724567 149.50743312 14.57724567 149.50743312 13.04296875 146.57421875 C11.18893022 143.24616202 9.02985776 140.41518534 6.5625 137.5 C5.82902344 136.60925781 5.09554687 135.71851563 4.33984375 134.80078125 C2.24433323 132.29246566 0.13143493 129.80064205 -1.98901367 127.31347656 C-2.44638916 126.7769043 -2.90376465 126.24033203 -3.375 125.6875 C-3.82915283 125.15479492 -4.28330566 124.62208984 -4.7512207 124.07324219 C-9.27701423 118.73231277 -13.58735792 113.22981637 -17.8828125 107.703125 C-19.36840268 105.78689558 -19.36840268 105.78689558 -21 104 C-21.33 120.83 -21.66 137.66 -22 155 C-29.59 155 -37.18 155 -45 155 C-45 124.31 -45 93.62 -45 62 C-25 62 -25 62 -20.875 65.6875 C-19.89572024 67.44683642 -18.94009061 69.21941495 -18 71 C-16.30613125 73.39415833 -14.49702431 75.69264922 -12.6875 78 C-12.036604 78.86371216 -12.036604 78.86371216 -11.37255859 79.74487305 C-9.10525648 82.84526986 -9.10525648 82.84526986 -6 85 C-6.02331642 83.99308105 -6.02331642 83.99308105 -6.04710388 82.96582031 C-6.20237468 75.95778575 -6.30771298 68.9502423 -6.38452148 61.94091797 C-6.41965066 59.32776023 -6.46736545 56.71473936 -6.52807617 54.10205078 C-6.61331785 50.33852323 -6.65276668 46.57681918 -6.68359375 42.8125 C-6.73778725 41.06984863 -6.73778725 41.06984863 -6.79307556 39.29199219 C-6.79589616 33.42085778 -6.51287895 29.8750576 -2.5065918 25.40551758 C-1.87222702 24.81692459 -1.23786224 24.2283316 -0.58427429 23.62190247 C1.3073828 21.96289463 1.3073828 21.96289463 1.7890625 18.69921875 C1.73492188 17.70535156 1.68078125 16.71148437 1.625 15.6875 C1.59664062 14.68074219 1.56828125 13.67398437 1.5390625 12.63671875 C0.93702894 9.69198939 0.1939998 8.93349851 -2 7 C-2.3125 4.4375 -2.3125 4.4375 -2 2 C-1.34 1.34 -0.68 0.68 0 0 Z " fill="#7FC935" transform="translate(577,410)"/>
<path d="M0 0 C8.415 -0.04125 16.83 -0.0825 25.5 -0.125 C28.14193359 -0.14320801 30.78386719 -0.16141602 33.50585938 -0.18017578 C35.61848752 -0.18602137 37.73111793 -0.19111677 39.84375 -0.1953125 C40.9255957 -0.20554443 42.00744141 -0.21577637 43.12207031 -0.22631836 C55.34406744 -0.229119 66.0777115 2.60740147 75.20703125 11.0625 C82.64308292 19.09797196 83.45197419 26.89842986 83.2734375 37.46484375 C82.92599594 45.84300135 79.78157924 52.18054119 74.046875 58.24609375 C63.59518203 67.2018383 51.01744452 67.29260895 37.9375 67.125 C36.58138685 67.11494631 35.22526645 67.1058247 33.86914062 67.09765625 C30.57934936 67.07424137 27.28965076 67.03837571 24 67 C24 75.58 24 84.16 24 93 C16.08 93 8.16 93 0 93 C0 62.31 0 31.62 0 0 Z " fill="#282A6F" transform="translate(353,472)"/>
<path d="M0 0 C1.4216868 4.26506039 -0.34613318 7.20037743 -1.9375 11.1875 C-2.37352539 12.31188477 -2.37352539 12.31188477 -2.81835938 13.45898438 C-3.53725036 15.30924477 -4.26754653 17.15506648 -5 19 C-7.79629141 18.07058516 -10.59175189 17.14010485 -13.37890625 16.18359375 C-14.09949219 15.93738281 -14.82007813 15.69117188 -15.5625 15.4375 C-16.28566406 15.18871094 -17.00882812 14.93992187 -17.75390625 14.68359375 C-25.69239301 12.26753256 -36.51822128 11.13407878 -44.375 14.375 C-47.08676342 15.73593741 -47.08676342 15.73593741 -48 18 C-48.51291466 22.5536801 -48.51291466 22.5536801 -46.83984375 26.6015625 C-44.43877403 28.4265794 -42.20822805 29.09094462 -39.3125 29.9375 C-38.1575 30.27652344 -37.0025 30.61554688 -35.8125 30.96484375 C-32.50920116 31.86174354 -29.20214232 32.69860129 -25.87548828 33.50170898 C-5.79651596 38.35155307 -5.79651596 38.35155307 1 46 C4.66944436 52.11574061 5.78222597 57.94894897 5 65 C2.87977253 72.94782411 -0.68389767 79.43286771 -7.84375 83.69140625 C-23.44981935 91.70689979 -41.57221119 92.60611757 -58.625 88.3125 C-64.13337612 86.53990838 -69.17156832 84.19278409 -74 81 C-73.31583566 76.82423832 -71.98634991 73.11919593 -70.4375 69.1875 C-69.98246094 68.02605469 -69.52742188 66.86460937 -69.05859375 65.66796875 C-68.53458984 64.34732422 -68.53458984 64.34732422 -68 63 C-64.75250963 63.54776946 -62.18233954 64.2688859 -59.3125 65.875 C-48.99972729 71.11748557 -37.63884138 72.90078879 -26.23046875 70.390625 C-22.3858713 69.09004842 -22.3858713 69.09004842 -20 66 C-19.58326793 62.54199641 -19.58326793 62.54199641 -20 59 C-23.26785576 55.63133635 -27.60607564 54.71372163 -32 53.5 C-32.75676025 53.28279297 -33.51352051 53.06558594 -34.29321289 52.84179688 C-38.65056027 51.60462228 -43.02147795 50.51068905 -47.4375 49.5 C-55.48908526 47.53134317 -62.55960941 44.42955252 -68 38 C-68.8353125 37.0409375 -68.8353125 37.0409375 -69.6875 36.0625 C-73.42999586 30.18143508 -73.97813295 23.78524659 -73 17 C-70.19008871 8.43137316 -65.8138662 2.50461208 -58 -2 C-41.33703665 -10.42190086 -16.14505232 -9.38344921 0 0 Z " fill="#2A2C70" transform="translate(334,477)"/>
<path d="M0 0 C8.20448814 6.74591247 13.23938912 14.0200565 15.8125 24.3125 C15.8125 28.9325 15.8125 33.5525 15.8125 38.3125 C-2.3375 38.3125 -20.4875 38.3125 -39.1875 38.3125 C-34.19929082 46.8785673 -34.19929082 46.8785673 -26.1875 51.3125 C-17.68556399 52.36360007 -12.08201644 50.84547365 -4.78125 46.4296875 C-2.1875 45.3125 -2.1875 45.3125 -0.140625 45.84375 C2.3185108 47.69302012 4.41843734 49.73037668 6.5625 51.9375 C7.36171875 52.75476563 8.1609375 53.57203125 8.984375 54.4140625 C9.58765625 55.04054688 10.1909375 55.66703125 10.8125 56.3125 C8.24459241 62.42280319 2.72897965 65.05652594 -3.14453125 67.5859375 C-15.97633004 72.04779602 -29.49928656 71.89264214 -41.83984375 66.05859375 C-51.89003127 60.51209928 -57.24311932 52.9738804 -61.1875 42.3125 C-62 39.3125 -62 39.3125 -62.1875 36.3125 C-62.249375 35.51457031 -62.31125 34.71664062 -62.375 33.89453125 C-62.80567014 24.35249588 -60.12317782 15.86699904 -54.1875 8.3125 C-39.27593869 -7.74610448 -19.21008478 -10.17004488 0 0 Z " fill="#81CA37" transform="translate(695.1875,496.6875)"/>
<path d="M0 0 C7.26 0 14.52 0 22 0 C22 5.61 22 11.22 22 17 C28.27 17 34.54 17 41 17 C41 22.94 41 28.88 41 35 C35.06 35 29.12 35 23 35 C23.05108114 39.62795102 23.11403825 44.25255308 23.20751953 48.87939453 C23.23570954 50.45252644 23.25693398 52.02579947 23.27099609 53.59912109 C23.29245442 55.86368956 23.33911348 58.12656504 23.390625 60.390625 C23.39185364 61.09181458 23.39308228 61.79300415 23.39434814 62.51544189 C23.4946247 65.87373333 23.79918127 67.72948094 25.82324219 70.45605469 C28.95815764 72.67960845 31.23600555 72.33017495 35 72 C36.66954959 71.68142024 38.33693667 71.35086928 40 71 C44.40774487 81.37357631 44.40774487 81.37357631 45 87 C35.75014072 91.67712975 26.76736327 92.41488575 16.6875 89.9375 C10.74064983 87.84885018 6.20322642 84.43003297 2.77978516 79.1003418 C-1.2311592 70.39151215 -0.43917446 61.24092048 -0.25 51.875 C-0.22990082 50.13804147 -0.2116561 48.40106043 -0.1953125 46.6640625 C-0.15159511 42.44214513 -0.0827586 38.22132516 0 34 C-3.63 34 -7.26 34 -11 34 C-11 28.72 -11 23.44 -11 18 C-7.37 18 -3.74 18 0 18 C0 12.06 0 6.12 0 0 Z " fill="#83CB38" transform="translate(727,476)"/>
<path d="M0 0 C4.23221101 3.24490567 7.99325236 6.73053058 11.58496094 10.66430664 C9.86341305 14.42918706 7.5926198 16.81494561 4.58496094 19.66430664 C1.09938283 18.14536205 -1.3372723 16.05970745 -4.16503906 13.53930664 C-13.07791987 6.13181857 -24.16330527 0.53663024 -35.41503906 -2.33569336 C-36.11757813 -2.53807617 -36.82011719 -2.74045898 -37.54394531 -2.94897461 C-55.32834667 -7.37250591 -76.5401721 -4.30531583 -92.34472656 4.77270508 C-98.21208555 8.35989878 -103.9064931 11.98358487 -108.66894531 16.98071289 C-111.41503906 19.66430664 -111.41503906 19.66430664 -114.41503906 19.66430664 C-114.41503906 19.00430664 -114.41503906 18.34430664 -114.41503906 17.66430664 C-115.01316406 17.39618164 -115.61128906 17.12805664 -116.22753906 16.85180664 C-118.38728714 15.67937197 -119.77294162 14.47061382 -121.41503906 12.66430664 C-116.35015405 0.83740238 -99.89168509 -7.31354936 -88.55957031 -12.00756836 C-58.88940899 -23.00850058 -25.48519385 -18.78254465 0 0 Z " fill="#86CC3E" transform="translate(793.4150390625,411.335693359375)"/>
<path d="M0 0 C1.0621875 0.06058594 2.124375 0.12117188 3.21875 0.18359375 C17.0188935 1.86704499 29.09769095 10.84786588 39 20 C38.62669176 22.72574271 38.20805399 23.80822085 36.15234375 25.703125 C35.05599609 26.46882813 35.05599609 26.46882813 33.9375 27.25 C33.20402344 27.77078125 32.47054687 28.2915625 31.71484375 28.828125 C31.14894531 29.21484375 30.58304688 29.6015625 30 30 C29.48953125 29.49210937 28.9790625 28.98421875 28.453125 28.4609375 C16.40213306 17.05095577 1.93667991 12.24474227 -14.578125 12.6484375 C-28.00168724 14.02757061 -38.47151008 20.9220297 -48 30 C-51.21043882 28.61811547 -53.04936365 27.07578097 -55.25 24.375 C-55.77078125 23.74335938 -56.2915625 23.11171875 -56.828125 22.4609375 C-57.21484375 21.97882813 -57.6015625 21.49671875 -58 21 C-42.25319122 3.1123864 -22.82546779 -1.41917445 0 0 Z " fill="#84CC3D" transform="translate(748,420)"/>
<path d="M0 0 C3.96 -0.103125 7.92 -0.20625 12 -0.3125 C13.84851563 -0.38078003 13.84851563 -0.38078003 15.734375 -0.45043945 C22.72314124 -0.53813851 27.72324291 0.16556949 33 5 C36.0148739 9.33388123 36.6300729 12.779396 36 18 C34.58689611 22.73700863 32.93719393 25.6809799 28.625 28.22265625 C23.08129579 30.81354349 17.49688745 30.43504868 11.5 30.25 C7.705 30.1675 3.91 30.085 0 30 C0 20.1 0 10.2 0 0 Z " fill="#F2F2EE" transform="translate(377,491)"/>
<path d="M0 0 C0.78761719 0.16242187 1.57523437 0.32484375 2.38671875 0.4921875 C6.88900867 1.12494176 11.27272107 1.14534255 15.8125 1.125 C16.66392578 1.12886719 17.51535156 1.13273438 18.39257812 1.13671875 C24.00306814 1.12817269 29.43429296 0.70907896 35 0 C36.19984797 2.26504965 37.38494769 4.53589888 38.5625 6.8125 C39.07586914 7.77639648 39.07586914 7.77639648 39.59960938 8.75976562 C40.4765023 10.46926395 41.24515617 12.23321294 42 14 C41 17 41 17 38.125 18.5625 C24.11023719 23.96372705 8.87370087 23.36920062 -5 18 C-5.66 17.34 -6.32 16.68 -7 16 C-6.66393718 11.85999207 -4.96086691 8.76067986 -2.9375 5.1875 C-2.11572266 3.72376953 -2.11572266 3.72376953 -1.27734375 2.23046875 C-0.85582031 1.49441406 -0.43429687 0.75835938 0 0 Z " fill="#26296C" transform="translate(466,540)"/>
<path d="M0 0 C-0.59834725 4.14298667 -2.00664285 7.18194377 -4.0625 10.8125 C-4.61035156 11.78832031 -5.15820312 12.76414062 -5.72265625 13.76953125 C-6.14417969 14.50558594 -6.56570313 15.24164063 -7 16 C-7.53625 15.9278125 -8.0725 15.855625 -8.625 15.78125 C-19.67704521 14.47245517 -30.97739254 14.42534179 -42 16 C-43.36680153 13.73595458 -44.71844445 11.46498979 -46.0625 9.1875 C-46.45244141 8.54490234 -46.84238281 7.90230469 -47.24414062 7.24023438 C-48.24130759 5.5371085 -49.12812687 3.77054142 -50 2 C-49 -1 -49 -1 -47.05078125 -2.16796875 C-32.47565056 -7.59465792 -13.85607308 -7.21017377 0 0 Z " fill="#26286B" transform="translate(508,476)"/>
<path d="M0 0 C4.92655254 3.19299871 8.34482116 5.68964231 11 11 C7.04 14.465 7.04 14.465 3 18 C-0.53812526 16.23093737 -3.70817568 14.2877828 -7 12.12109375 C-12.97704024 8.77068252 -20.37885869 9.46615658 -27 10 C-32.60701542 11.59952068 -36.03072095 14.79723395 -40 19 C-42 19 -42 19 -44.5 16.625 C-45.7375 15.325625 -45.7375 15.325625 -47 14 C-47.66 13.34 -48.32 12.68 -49 12 C-48.69277468 8.50620504 -47.24096908 6.85163481 -44.6875 4.5625 C-32.21663578 -5.66096466 -14.34635465 -7.87327943 0 0 Z " fill="#83CD3C" transform="translate(758,450)"/>
<path d="M0 0 C3.48579191 1.98927391 6.19581306 4.39162612 8 8 C8.40226867 13.22949274 7.9287695 16.60684575 5 21 C1.4967262 24.24693669 -1.32525948 25.30240166 -6 25.5625 C-9.52891204 25.41900508 -11.71708799 24.95313867 -14.5 22.75 C-17.80640712 19.11295217 -18.83222901 17.50993888 -19.375 12.625 C-18.85811583 7.62845301 -16.8863808 4.70711351 -13.19140625 1.36328125 C-9.10460699 -1.17913041 -4.62260182 -0.828026 0 0 Z " fill="#F3F3ED" transform="translate(570,590)"/>
<path d="M0 0 C4.7128918 4.16488113 7.40287046 6.95185231 8.6875 13.375 C-2.5325 13.375 -13.7525 13.375 -25.3125 13.375 C-24.2789639 7.17378341 -23.58210707 5.64460707 -19.3125 1.375 C-13.39647823 -2.75245705 -6.42030597 -3.14958406 0 0 Z " fill="#F0F6E7" transform="translate(681.3125,509.625)"/>
<path d="M0 0 C0.99 0 1.98 0 3 0 C3.99 0 4.98 0 6 0 C6.14575327 3.39537852 6.23421542 6.78994902 6.3125 10.1875 C6.35439453 11.14720703 6.39628906 12.10691406 6.43945312 13.09570312 C6.52095418 17.80646411 6.55494262 20.2180354 3.765625 24.1484375 C0.94305272 26.03812572 -0.23371104 26.61696514 -3.5625 26.4375 C-4.30628906 26.41558594 -5.05007813 26.39367187 -5.81640625 26.37109375 C-8.18793496 25.96806114 -9.91450318 25.17752541 -12 24 C-12 23.34 -12 22.68 -12 22 C-7.71 22 -3.42 22 1 22 C1.66 20.02 2.32 18.04 3 16 C2.01 16.66 1.02 17.32 0 18 C-4.86581934 18.5493667 -6.8976444 18.73490373 -11 16 C-13.21925086 12.67112371 -13.75890933 10.86063492 -13.4765625 6.9375 C-11.67077901 -0.40404599 -6.26019003 -0.50485403 0 0 Z " fill="#888786" transform="translate(518,596)"/>
<path d="M0 0 C2.375 -0.125 2.375 -0.125 5 0 C7 2 7 2 7.25 4.5 C7 7 7 7 5 9 C2.5 9.25 2.5 9.25 0 9 C-0.99 8.01 -0.99 8.01 -2 7 C-4.91487922 6.72123233 -4.91487922 6.72123233 -8.3203125 6.8046875 C-9.57714844 6.81113281 -10.83398438 6.81757813 -12.12890625 6.82421875 C-14.10697266 6.84935547 -14.10697266 6.84935547 -16.125 6.875 C-17.46483721 6.88503017 -18.80468152 6.89415596 -20.14453125 6.90234375 C-23.42986573 6.92597925 -26.71484465 6.95892766 -30 7 C-25.55040098 13.05888213 -21.04483507 18.84592751 -13.25976562 20.08398438 C-7.92008746 20.5438744 -2.60063895 20.4102726 2.75 20.25 C4.62236871 20.23800179 6.4947806 20.23144907 8.3671875 20.23046875 C12.91438909 20.21638882 17.45465974 20.12877402 22 20 C22.33 18.68 22.66 17.36 23 16 C25.875 15.875 25.875 15.875 29 16 C31 18 31 18 31.25 20.5 C31 23 31 23 29 25 C26.375 25.125 26.375 25.125 24 25 C23.01 23.02 23.01 23.02 22 21 C20.24695557 21.10997314 20.24695557 21.10997314 18.45849609 21.22216797 C14.0578862 21.47853359 9.65790645 21.63728599 5.25195312 21.76904297 C3.35791582 21.8387996 1.46461431 21.93386251 -0.42675781 22.05615234 C-16.02808359 23.03845804 -16.02808359 23.03845804 -21.04135132 19.599823 C-23.56029834 17.240018 -25.76603034 14.69387447 -27.98292542 12.05262756 C-31.37113902 8.17021097 -33.72019434 6.13801234 -38.92657471 5.53100586 C-41.64417246 5.43275306 -44.31356496 5.47611432 -47.02612305 5.66918945 C-49.09645361 5.81488949 -51.14959367 5.8537863 -53.22460938 5.87695312 C-60.65471484 5.92689495 -60.65471484 5.92689495 -66.92358398 9.5612793 C-67.60880127 10.36605713 -68.29401855 11.17083496 -69 12 C-69.66 11.67 -70.32 11.34 -71 11 C-68.29682893 7.04597834 -65.76900276 4.36500914 -60.96755981 3.3742981 C-57.21842927 3.19086504 -53.50303811 3.21170985 -49.75390625 3.31640625 C-48.37388126 3.32948046 -46.99382352 3.33943603 -45.61375427 3.34642029 C-42.00107331 3.37300495 -38.39039796 3.44163535 -34.77850342 3.51934814 C-31.08503344 3.59127045 -27.39123571 3.62299297 -23.69726562 3.65820312 C-16.46393452 3.73302346 -9.23224946 3.85231129 -2 4 C-1.34 2.68 -0.68 1.36 0 0 Z " fill="#ACE072" transform="translate(670,455)"/>
<path d="M0 0 C13.20745118 -0.49373649 13.20745118 -0.49373649 16.890625 1.80078125 C19.80114876 4.83527176 20.07305252 6.83600622 20 11 C17.91374661 14.42741629 16.8255689 15.72481037 13 17 C11.10529184 17.0685495 9.2083166 17.08480372 7.3125 17.0625 C6.31863281 17.05347656 5.32476562 17.04445313 4.30078125 17.03515625 C3.16189453 17.01775391 3.16189453 17.01775391 2 17 C2 19.64 2 22.28 2 25 C1.34 25 0.68 25 0 25 C0 16.75 0 8.5 0 0 Z " fill="#797778" transform="translate(389,590)"/>
<path d="M0 0 C3.4375 1.9375 3.4375 1.9375 6 5 C6.80389864 8.17539964 6.75379649 10.81794306 6 14 C4.0125694 17.0432531 2.67958873 18.62073803 -0.9375 19.4375 C-4.50511745 19.65371924 -6.70361149 19.14504119 -9.9375 17.5625 C-12.85238176 13.94098024 -13.44335215 10.60593622 -13 6 C-9.54795922 0.28627733 -6.55164722 -0.65516472 0 0 Z " fill="#8A8887" transform="translate(724,596)"/>
<path d="M0 0 C2.875 1.5625 2.875 1.5625 5 4 C5.33 6.31 5.66 8.62 6 11 C0.72 11 -4.56 11 -10 11 C-7.61553841 15.08563405 -7.61553841 15.08563405 -5.0625 15.42578125 C-4.381875 15.38839844 -3.70125 15.35101562 -3 15.3125 C-2.319375 15.28800781 -1.63875 15.26351562 -0.9375 15.23828125 C1.21445143 15.03855107 1.21445143 15.03855107 4 14 C3.625 15.9375 3.625 15.9375 3 18 C-0.20173254 19.60086627 -3.52577059 19.49917089 -7 19 C-9.8100346 17.20636089 -11.50940468 15.98119065 -13 13 C-13.39447548 8.81855989 -13.45035186 6.69053952 -11.125 3.125 C-7.54668265 -0.45331735 -4.99886778 -0.42363286 0 0 Z " fill="#888784" transform="translate(655,596)"/>
<path d="M0 0 C1 1 1 1 1.25 3.9375 C1.1675 4.948125 1.085 5.95875 1 7 C0.01 7.66 -0.98 8.32 -2 9 C-3.58290069 17.36576562 -4.88560936 31.2188651 -1.00537109 38.99267578 C0.95894637 41.23155038 3.34018757 42.79967302 5.7734375 44.49609375 C9.66267287 48.86977774 8.75693825 54.16271148 8.5078125 59.75610352 C8.37432278 61.84000321 8.19213363 63.92068711 8 66 C7.67 66 7.34 66 7 66 C7.07863281 64.85144531 7.15726563 63.70289063 7.23828125 62.51953125 C7.55214729 52.56155888 7.55214729 52.56155888 3.109375 43.9453125 C-3.37859104 36.89177551 -3.37859104 36.89177551 -11.96875 33.83203125 C-13.1340625 33.82558594 -14.299375 33.81914062 -15.5 33.8125 C-16.6653125 33.79832031 -17.830625 33.78414063 -19.03125 33.76953125 C-22.11906718 33.68556286 -22.11906718 33.68556286 -24 36 C-26.5 36.25 -26.5 36.25 -29 36 C-29.66 35.34 -30.32 34.68 -31 34 C-30.625 30.875 -30.625 30.875 -30 28 C-28.02 27.67 -26.04 27.34 -24 27 C-23.66226563 27.64710938 -23.32453125 28.29421875 -22.9765625 28.9609375 C-20.54751354 31.46679433 -18.8594539 31.49008722 -15.453125 31.609375 C-14.76734375 31.61453125 -14.0815625 31.6196875 -13.375 31.625 C-10.89310635 31.67113185 -8.47810838 31.79299811 -6 32 C-5.67 32.66 -5.34 33.32 -5 34 C-4.67 25.42 -4.34 16.84 -4 8 C-5.32 7.34 -6.64 6.68 -8 6 C-7.625 3.0625 -7.625 3.0625 -7 0 C-4.31633121 -1.3418344 -2.84719317 -0.73004953 0 0 Z " fill="#97DE54" transform="translate(552,411)"/>
<path d="M0 0 C0.99 0 1.98 0 3 0 C3.33 0.66 3.66 1.32 4 2 C4.66 1.34 5.32 0.68 6 0 C10.55244646 -0.34358086 13.88581814 0.00524516 18 2 C18.66 1.34 19.32 0.68 20 0 C24.07676171 -0.53844023 26.3189296 -0.37676235 29.9375 1.625 C33.25713604 7.0571317 32.37789892 12.79405995 32 19 C31.01 19 30.02 19 29 19 C28.67 14.05 28.34 9.1 28 4 C26.72125 3.938125 25.4425 3.87625 24.125 3.8125 C23.40570313 3.77769531 22.68640625 3.74289062 21.9453125 3.70703125 C21.30335938 3.80371094 20.66140625 3.90039062 20 4 C17.73045369 7.40431947 17.63450051 9.16524202 17.375 13.1875 C17.30023438 14.27417969 17.22546875 15.36085938 17.1484375 16.48046875 C17.09945313 17.31191406 17.05046875 18.14335938 17 19 C16.01 19 15.02 19 14 19 C13.93941406 18.00097656 13.87882812 17.00195312 13.81640625 15.97265625 C13.69072266 14.03712891 13.69072266 14.03712891 13.5625 12.0625 C13.48128906 10.77472656 13.40007812 9.48695313 13.31640625 8.16015625 C13.35080812 5.13976043 13.35080812 5.13976043 12 4 C9.04182893 3.74994614 9.04182893 3.74994614 6 4 C3.22957891 6.77042109 3.60203894 8.76533805 3.375 12.625 C3.30023438 13.81351563 3.22546875 15.00203125 3.1484375 16.2265625 C3.09945313 17.14179687 3.05046875 18.05703125 3 19 C2.01 19 1.02 19 0 19 C0 12.73 0 6.46 0 0 Z " fill="#848181" transform="translate(288,596)"/>
<path d="M0 0 C4.75474046 1.18868512 5.53194216 2.42152251 8.5 6.1875 C9.2528125 7.12980469 10.005625 8.07210937 10.78125 9.04296875 C12.96270154 11.9502906 14.9838154 14.97572309 17 18 C17.33 12.06 17.66 6.12 18 0 C18.99 0 19.98 0 21 0 C21 8.25 21 16.5 21 25 C16.1290131 23.78225328 14.73239189 21.54671354 11.9375 17.6875 C11.50373047 17.10548828 11.06996094 16.52347656 10.62304688 15.92382812 C9.40664746 14.28900213 8.20294029 12.64475476 7 11 C6.01 9.68 5.02 8.36 4 7 C3.67 12.94 3.34 18.88 3 25 C2.01 25 1.02 25 0 25 C0 16.75 0 8.5 0 0 Z " fill="#7F7E7D" transform="translate(615,590)"/>
<path d="M0 0 C3.48579191 1.98927391 6.19581306 4.39162612 8 8 C8.40226867 13.22949274 7.9287695 16.60684575 5 21 C1.4967262 24.24693669 -1.32525948 25.30240166 -6 25.5625 C-9.52891204 25.41900508 -11.71708799 24.95313867 -14.5 22.75 C-17.80640712 19.11295217 -18.83222901 17.50993888 -19.375 12.625 C-18.85811583 7.62845301 -16.8863808 4.70711351 -13.19140625 1.36328125 C-9.10460699 -1.17913041 -4.62260182 -0.828026 0 0 Z M-13.5625 5.0625 C-15.29162595 8.59593129 -16 11.05001433 -16 15 C-13.77020332 19.25798376 -13.77020332 19.25798376 -10 22 C-6.94079426 22.42071592 -4.0532254 22.48514117 -1 22 C1.75569447 19.81840855 3.43588747 18.12822506 5 15 C5.43023798 11.12785818 5.31669086 9.47503629 3.125 6.1875 C0.12315111 3.09736144 -1.6686494 2.78726278 -5.875 2.625 C-10.08767777 2.67706396 -10.08767777 2.67706396 -13.5625 5.0625 Z " fill="#808080" transform="translate(570,590)"/>
<path d="M0 0 C2.2421875 1.53515625 2.2421875 1.53515625 4 4 C4.2911521 6.73682971 4.38322418 9.03940039 4.25 11.75 C4.23195313 12.44738281 4.21390625 13.14476562 4.1953125 13.86328125 C4.14838554 15.57611539 4.07664605 17.28823824 4 19 C3.38125 18.814375 2.7625 18.62875 2.125 18.4375 C-0.04160178 17.76313824 -0.04160178 17.76313824 -2 19 C-8.25748503 19.45508982 -8.25748503 19.45508982 -10.9375 17.8125 C-12.38718434 15.33950907 -12.42317323 13.82115488 -12 11 C-10.80078125 9.35546875 -10.80078125 9.35546875 -9 8 C-6.51953125 7.70703125 -6.51953125 7.70703125 -3.8125 7.8125 C-2.46091797 7.85310547 -2.46091797 7.85310547 -1.08203125 7.89453125 C-0.39496094 7.92933594 0.29210937 7.96414063 1 8 C0.34 6.68 -0.32 5.36 -1 4 C-4.3 4 -7.6 4 -11 4 C-10.67 3.01 -10.34 2.02 -10 1 C-6.87057535 -0.56471233 -3.38917777 -0.69701958 0 0 Z " fill="#787778" transform="translate(337,596)"/>
<path d="M0 0 C2.2421875 1.53515625 2.2421875 1.53515625 4 4 C4.2911521 6.73682971 4.38322418 9.03940039 4.25 11.75 C4.23195313 12.44738281 4.21390625 13.14476562 4.1953125 13.86328125 C4.14838554 15.57611539 4.07664605 17.28823824 4 19 C3.38125 18.814375 2.7625 18.62875 2.125 18.4375 C-0.04160178 17.76313824 -0.04160178 17.76313824 -2 19 C-8.25748503 19.45508982 -8.25748503 19.45508982 -10.9375 17.8125 C-12.40319823 15.31219126 -12.49852135 13.84869344 -12 11 C-10.5625 9.1875 -10.5625 9.1875 -8 8 C-4.98228984 7.7610763 -2.01993159 7.82577318 1 8 C0.34 6.68 -0.32 5.36 -1 4 C-4.3 4 -7.6 4 -11 4 C-10.67 3.01 -10.34 2.02 -10 1 C-6.87057535 -0.56471233 -3.38917777 -0.69701958 0 0 Z " fill="#7B7B7B" transform="translate(424,596)"/>
<path d="M0 0 C0.99 0 1.98 0 3 0 C4.98 4.29 6.96 8.58 9 13 C10.65 8.71 12.3 4.42 14 0 C15.32 0.33 16.64 0.66 18 1 C20.1005746 4.85289604 21.44058131 8.88486734 23 13 C24.65 8.71 26.3 4.42 28 0 C28.99 0 29.98 0 31 0 C29.12275039 6.37732315 27.14328358 12.70695459 25 19 C23.68 19 22.36 19 21 19 C19.35 14.71 17.7 10.42 16 6 C15.360625 7.4025 14.72125 8.805 14.0625 10.25 C13.70285156 11.03890625 13.34320312 11.8278125 12.97265625 12.640625 C12.09966721 14.75823698 11.48661492 16.76669362 11 19 C9.68 19 8.36 19 7 19 C5.82905995 16.2100561 4.66309073 13.41821403 3.5 10.625 C2.99919922 9.43390625 2.99919922 9.43390625 2.48828125 8.21875 C2.17246094 7.45820312 1.85664062 6.69765625 1.53125 5.9140625 C1.23798828 5.2123291 0.94472656 4.5105957 0.64257812 3.78759766 C0 2 0 2 0 0 Z " fill="#817F7D" transform="translate(678,596)"/>
<path d="M0 0 C2.375 -0.1875 2.375 -0.1875 5 0 C7 3 7 3 6.6875 5.625 C6 8 6 8 5 9 C2.66055264 8.71269945 0.3260857 8.38063221 -2 8 C-2 7.01 -2 6.02 -2 5 C-26.3431307 2.83783067 -26.3431307 2.83783067 -48.70898438 10.68945312 C-57.76487143 18.7012333 -59.63205676 26.81821706 -60.40625 38.45703125 C-61.02120672 50.97453037 -60.68522118 63.49244099 -60 76 C-60.33 76 -60.66 76 -61 76 C-64.88093482 26.70697329 -64.88093482 26.70697329 -55.41357422 13.89794922 C-46.36051546 4.67772492 -37.38752744 2.89665822 -24.93212891 2.63549805 C-17.25279824 2.63791242 -9.63281203 3.19377943 -2 4 C-1.34 2.68 -0.68 1.36 0 0 Z " fill="#97D852" transform="translate(645,437)"/>
<path d="M0 0 C0.78246094 0.09023438 1.56492187 0.18046875 2.37109375 0.2734375 C4.5625 0.625 4.5625 0.625 7.5625 1.625 C9.04373547 1.7056622 10.52832204 1.73261193 12.01171875 1.72265625 C12.85927734 1.71943359 13.70683594 1.71621094 14.58007812 1.71289062 C15.90168945 1.70032227 15.90168945 1.70032227 17.25 1.6875 C18.14267578 1.68298828 19.03535156 1.67847656 19.95507812 1.67382812 C22.15761987 1.66204983 24.36002599 1.64560164 26.5625 1.625 C26.2325 2.615 25.9025 3.605 25.5625 4.625 C27.8725 5.285 30.1825 5.945 32.5625 6.625 C32.5625 6.955 32.5625 7.285 32.5625 7.625 C28.50980482 7.67517623 24.45723481 7.71107843 20.40429688 7.73486328 C19.03121788 7.74479919 17.65815933 7.75835261 16.28515625 7.77587891 C7.48540033 7.8852326 -0.81291997 7.42839521 -9.4375 5.625 C-8.4475 5.295 -7.4575 4.965 -6.4375 4.625 C-6.4375 3.305 -6.4375 1.985 -6.4375 0.625 C-3.9632021 -0.61214895 -2.72250667 -0.33081362 0 0 Z " fill="#40A0D3" transform="translate(467.4375,559.375)"/>
<path d="M0 0 C0.66 0 1.32 0 2 0 C2.6509259 1.24735567 3.29551669 2.49801832 3.9375 3.75 C4.29714844 4.44609375 4.65679687 5.1421875 5.02734375 5.859375 C6.65948199 9.45139009 7.12421459 12.61624106 7.09765625 16.546875 C7.09282227 17.81337891 7.09282227 17.81337891 7.08789062 19.10546875 C7.07951172 19.97816406 7.07113281 20.85085938 7.0625 21.75 C7.05798828 22.63816406 7.05347656 23.52632813 7.04882812 24.44140625 C7.037074 26.62767329 7.02064249 28.81380179 7 31 C4.69 31 2.38 31 0 31 C0 20.77 0 10.54 0 0 Z " fill="#282E73" transform="translate(456,484)"/>
<path d="M0 0 C0.33 0.66 0.66 1.32 1 2 C1.66 2 2.32 2 3 2 C3.07586402 9.79616078 3.12852114 17.59222693 3.16479492 25.38867188 C3.17991145 28.04267941 3.20040495 30.69666186 3.22631836 33.35058594 C3.26257521 37.158266 3.27969763 40.96561675 3.29296875 44.7734375 C3.30845261 45.96617279 3.32393646 47.15890808 3.33988953 48.38778687 C3.34011612 49.48877716 3.34034271 50.58976746 3.34057617 51.72412109 C3.34723801 52.69674896 3.35389984 53.66937683 3.36076355 54.67147827 C3.24171158 55.43989044 3.12265961 56.20830261 3 57 C2.01 57.66 1.02 58.32 0 59 C-0.92769822 39.23645186 -0.97350025 19.76580775 0 0 Z " fill="#3DA0CF" transform="translate(511,485)"/>
<path d="M0 0 C0.86882812 0.01546875 1.73765625 0.0309375 2.6328125 0.046875 C4.875 0.25 4.875 0.25 6.875 1.25 C6.875 2.24 6.875 3.23 6.875 4.25 C5.885 3.92 4.895 3.59 3.875 3.25 C-0.779797 2.9446182 -0.779797 2.9446182 -5.125 4.25 C-5.78055119 6.77733235 -5.78055119 6.77733235 -6.125 9.25 C-5.37734375 9.42015625 -4.6296875 9.5903125 -3.859375 9.765625 C-2.87453125 10.00796875 -1.8896875 10.2503125 -0.875 10.5 C0.58679688 10.84804688 0.58679688 10.84804688 2.078125 11.203125 C5.24183613 12.38730738 6.79297757 13.60781439 8.875 16.25 C8.875 19.3125 8.875 19.3125 7.875 22.25 C4.93008954 25.05029432 2.89693363 25.64220295 -1.125 25.5625 C-1.970625 25.55863281 -2.81625 25.55476562 -3.6875 25.55078125 C-6.24037729 25.23576274 -7.91513935 24.53396996 -10.125 23.25 C-10.125 22.26 -10.125 21.27 -10.125 20.25 C-9.57328125 20.41371094 -9.0215625 20.57742188 -8.453125 20.74609375 C-5.85885993 21.30760414 -3.52664589 21.34739008 -0.875 21.3125 C0.46304687 21.29896484 0.46304687 21.29896484 1.828125 21.28515625 C2.50359375 21.27355469 3.1790625 21.26195312 3.875 21.25 C4.205 19.93 4.535 18.61 4.875 17.25 C4.04355469 16.92386719 3.21210938 16.59773437 2.35546875 16.26171875 C1.26878906 15.82472656 0.18210937 15.38773438 -0.9375 14.9375 C-2.01644531 14.50824219 -3.09539062 14.07898438 -4.20703125 13.63671875 C-6.83207304 12.38920893 -8.42609242 11.57702482 -10.125 9.25 C-10.0541402 5.84872951 -9.88118664 3.97729861 -7.38671875 1.578125 C-4.6928197 -0.00378463 -3.09930987 -0.09251671 0 0 Z " fill="#807F7F" transform="translate(274.125,589.75)"/>
<path d="M0 0 C0.99 0 1.98 0 3 0 C3.33 5.61 3.66 11.22 4 17 C5.216875 15.700625 6.43375 14.40125 7.6875 13.0625 C10.69553355 9.85053197 12.58489226 8.48713098 17 8 C15.02 10.64 13.04 13.28 11 16 C13.31 19.63 15.62 23.26 18 27 C14 27 14 27 12.515625 25.5390625 C12.09796875 24.90742187 11.6803125 24.27578125 11.25 23.625 C10.82203125 22.99851562 10.3940625 22.37203125 9.953125 21.7265625 C9 20 9 20 9 18 C5.12047456 20.62948691 5.12047456 20.62948691 3.1875 24.75 C3.0946875 25.86375 3.0946875 25.86375 3 27 C2.01 27 1.02 27 0 27 C0 18.09 0 9.18 0 0 Z " fill="#80807D" transform="translate(750,588)"/>
<path d="M0 0 C0.99 0 1.98 0 3 0 C3 5.61 3 11.22 3 17 C4.8871875 15.329375 4.8871875 15.329375 6.8125 13.625 C9.15952365 11.54730693 11.38386409 9.74409061 14 8 C14.99 8.33 15.98 8.66 17 9 C15.02 11.31 13.04 13.62 11 16 C13.31 19.3 15.62 22.6 18 26 C17.01 26.33 16.02 26.66 15 27 C13.99406757 25.8803014 12.9954151 24.7540588 12 23.625 C11.1646875 22.68527344 11.1646875 22.68527344 10.3125 21.7265625 C9 20 9 20 9 18 C8.38125 18.495 7.7625 18.99 7.125 19.5 C5 21 5 21 3 21 C3 22.98 3 24.96 3 27 C2.01 27 1.02 27 0 27 C0 18.09 0 9.18 0 0 Z " fill="#838281" transform="translate(449,588)"/>
<path d="M0 0 C0.33 0 0.66 0 1 0 C1 10.23 1 20.46 1 31 C-0.98 31 -2.96 31 -5 31 C-5.147077 27.52128965 -5.23465255 24.04339333 -5.3125 20.5625 C-5.35439453 19.58861328 -5.39628906 18.61472656 -5.43945312 17.61132812 C-5.55891561 10.46747133 -4.06946523 5.87159144 0 0 Z " fill="#292A6E" transform="translate(509,484)"/>
<path d="M0 0 C3.29714793 0.32971479 4.6226839 0.6226839 7 3 C6.625 5.625 6.625 5.625 6 8 C5.01 8.33 4.02 8.66 3 9 C3.12181641 10.37671875 3.12181641 10.37671875 3.24609375 11.78125 C3.30925781 13.0084375 3.37242187 14.235625 3.4375 15.5 C3.55931641 17.30984375 3.55931641 17.30984375 3.68359375 19.15625 C2.93059796 23.39023773 2.49409423 23.69166156 -0.48632812 26.41210938 C-5.37833602 31.82429539 -4.9852229 37.24119308 -4.90234375 44.25 C-4.91463516 45.50385498 -4.92692657 46.75770996 -4.93959045 48.04956055 C-4.96587904 51.35777144 -4.96244422 54.66414393 -4.94421387 57.97235107 C-4.93300338 61.35802097 -4.96140962 64.74334362 -4.98632812 68.12890625 C-5.02712264 74.75288025 -5.0286922 81.37598198 -5 88 C-7.22204797 84.66692805 -7.25082331 83.62198681 -7.24633789 79.73754883 C-7.24875992 78.6624556 -7.25118195 77.58736237 -7.25367737 76.47969055 C-7.2434404 75.31721298 -7.23320343 74.15473541 -7.22265625 72.95703125 C-7.21423203 71.75946701 -7.2058078 70.56190277 -7.1971283 69.32804871 C-7.17344047 66.79016959 -7.14361241 64.25234156 -7.1081543 61.71459961 C-7.06288033 57.84500676 -7.06515241 53.97723592 -7.06835938 50.10742188 C-7.03941419 47.64058855 -7.00760503 45.17378683 -6.97265625 42.70703125 C-6.98063736 41.55467484 -6.98861847 40.40231842 -6.99684143 39.21504211 C-6.85828281 33.38990631 -6.45736716 29.8396407 -2.48852539 25.41210938 C-1.85676895 24.8225647 -1.22501251 24.23302002 -0.57411194 23.62561035 C1.30578738 21.96045853 1.30578738 21.96045853 1.7890625 18.69921875 C1.73492188 17.70535156 1.68078125 16.71148437 1.625 15.6875 C1.59664062 14.68074219 1.56828125 13.67398437 1.5390625 12.63671875 C0.93702894 9.69198939 0.1939998 8.93349851 -2 7 C-2.3125 4.4375 -2.3125 4.4375 -2 2 C-1.34 1.34 -0.68 0.68 0 0 Z " fill="#99DE58" transform="translate(577,410)"/>
<path d="M0 0 C2.31 0 4.62 0 7 0 C8.08667903 16.40080388 8.08667903 16.40080388 2.41015625 23.59375 C1 25 1 25 0 25 C0 16.75 0 8.5 0 0 Z " fill="#26286B" transform="translate(456,519)"/>
<path d="M0 0 C3.5625 0.3125 3.5625 0.3125 5.5 1.375 C7.1765629 4.43226176 6.92778977 6.9031288 6.5625 10.3125 C5.5 12.25 5.5 12.25 3.5625 13.3125 C0.0625 13.75 0.0625 13.75 -3.4375 13.3125 C-5.4375 11.75 -5.4375 11.75 -6.4375 9.3125 C-5.98395669 0.54399606 -5.98395669 0.54399606 0 0 Z " fill="#F7F6EF" transform="translate(720.4375,598.6875)"/>
<path d="M0 0 C8.13448006 -0.35887412 8.13448006 -0.35887412 11.5625 1.0625 C13.78375862 4.05637032 13.45864353 6.39637228 13 10 C8.61501596 12.92332269 5.2225328 12.1356502 0 12 C0 8.04 0 4.08 0 0 Z " fill="#F3F2EC" transform="translate(392,592)"/>
<path d="M0 0 C1.32 0.33 2.64 0.66 4 1 C4.66 0.67 5.32 0.34 6 0 C10.0608573 -0.45971969 12.33438682 -0.36821155 15.9375 1.625 C19.25713604 7.0571317 18.37789892 12.79405995 18 19 C17.01 19 16.02 19 15 19 C14.93941406 18.08476563 14.87882812 17.16953125 14.81640625 16.2265625 C14.69072266 14.44378906 14.69072266 14.44378906 14.5625 12.625 C14.48128906 11.44164062 14.40007812 10.25828125 14.31640625 9.0390625 C14.18915064 6.08481099 14.18915064 6.08481099 13 4 C9.58343976 3.83322718 9.58343976 3.83322718 6 4 C3.22957891 6.77042109 3.60203894 8.76533805 3.375 12.625 C3.30023438 13.81351563 3.22546875 15.00203125 3.1484375 16.2265625 C3.09945313 17.14179687 3.05046875 18.05703125 3 19 C2.01 19 1.02 19 0 19 C0 12.73 0 6.46 0 0 Z " fill="#7F7D7D" transform="translate(482,596)"/>
<path d="M0 0 C0.99 0.66 1.98 1.32 3 2 C3.37033222 5.39471203 3.60921702 7.88907484 1.9375 10.9375 C-1.11976176 12.6140629 -3.5906288 12.36528977 -7 12 C-8.9375 10.875 -8.9375 10.875 -10 9 C-10.38976435 5.88188517 -10.50422245 3.88980433 -8.9375 1.125 C-5.92517484 -0.62409203 -3.40497373 -0.30401551 0 0 Z " fill="#F6F6F1" transform="translate(518,599)"/>
<path d="M0 0 C1.98 0 3.96 0 6 0 C6 7.92 6 15.84 6 24 C0.02558854 18.02558854 0.02558854 18.02558854 -0.09765625 13.0859375 C-0.09100226 11.51559537 -0.07906939 9.94526881 -0.0625 8.375 C-0.05798828 7.57320312 -0.05347656 6.77140625 -0.04882812 5.9453125 C-0.03703168 3.96350994 -0.01909605 1.98174567 0 0 Z " fill="#282567" transform="translate(504,519)"/>
<path d="M0 0 C6.6 0 13.2 0 20 0 C20 0.66 20 1.32 20 2 C17.03 2 14.06 2 11 2 C11 9.59 11 17.18 11 25 C10.01 25 9.02 25 8 25 C8 17.74 8 10.48 8 3 C5.36 3 2.72 3 0 3 C0 2.01 0 1.02 0 0 Z " fill="#848482" transform="translate(580,590)"/>
<path d="M0 0 C0.66 0 1.32 0 2 0 C2.14575327 3.39537852 2.23421542 6.78994902 2.3125 10.1875 C2.35439453 11.14720703 2.39628906 12.10691406 2.43945312 13.09570312 C2.52095418 17.80646411 2.55494262 20.2180354 -0.234375 24.1484375 C-3.05694728 26.03812572 -4.23371104 26.61696514 -7.5625 26.4375 C-8.67818359 26.40462891 -8.67818359 26.40462891 -9.81640625 26.37109375 C-12.18793496 25.96806114 -13.91450318 25.17752541 -16 24 C-16 23.34 -16 22.68 -16 22 C-15.08476562 22.03480469 -14.16953125 22.06960938 -13.2265625 22.10546875 C-12.03804688 22.13253906 -10.84953125 22.15960937 -9.625 22.1875 C-8.44164062 22.22230469 -7.25828125 22.25710938 -6.0390625 22.29296875 C-5.03617188 22.19628906 -4.03328125 22.09960938 -3 22 C-0.4645574 18.1968361 -0.92679479 16.43119805 -1.3125 11.9375 C-1.41175781 10.68839844 -1.51101563 9.43929687 -1.61328125 8.15234375 C-1.80865541 5.10354158 -1.80865541 5.10354158 -3 3 C-2.01 3 -1.02 3 0 3 C0 2.01 0 1.02 0 0 Z " fill="#747575" transform="translate(522,596)"/>
<path d="M0 0 C0.99 0 1.98 0 3 0 C3 1.65 3 3.3 3 5 C4.65 5 6.3 5 8 5 C8 5.66 8 6.32 8 7 C6.35 7 4.7 7 3 7 C3 11.62 3 16.24 3 21 C4.98 21 6.96 21 9 21 C9 21.99 9 22.98 9 24 C5.625 24.1875 5.625 24.1875 2 24 C-0.42130331 20.36804504 -0.21022785 18.61650652 -0.125 14.3125 C-0.09792969 12.54326172 -0.09792969 12.54326172 -0.0703125 10.73828125 C-0.03550781 9.38283203 -0.03550781 9.38283203 0 8 C-1.32 7.67 -2.64 7.34 -4 7 C-4 6.34 -4 5.68 -4 5 C-2.68 5 -1.36 5 0 5 C0 3.35 0 1.7 0 0 Z " fill="#7E7E7D" transform="translate(363,591)"/>
<path d="M0 0 C1.423125 0.061875 2.84625 0.12375 4.3125 0.1875 C4.3125 3.1575 4.3125 6.1275 4.3125 9.1875 C3.6525 8.8575 2.9925 8.5275 2.3125 8.1875 C1.3225 8.6825 1.3225 8.6825 0.3125 9.1875 C-5.94498503 9.64258982 -5.94498503 9.64258982 -8.625 8 C-10.01601983 5.62708382 -9.90667317 3.89063576 -9.6875 1.1875 C-9.0275 1.8475 -8.3675 2.5075 -7.6875 3.1875 C-7.28917969 2.69636719 -6.89085937 2.20523438 -6.48046875 1.69921875 C-4.1753245 -0.24433425 -2.9678281 -0.129036 0 0 Z " fill="#7E7C7B" transform="translate(421.6875,605.8125)"/>
<path d="M0 0 C0.99 0 1.98 0 3 0 C3 1.65 3 3.3 3 5 C4.65 5 6.3 5 8 5 C8 5.66 8 6.32 8 7 C6.35 7 4.7 7 3 7 C3 11.62 3 16.24 3 21 C4.65 21 6.3 21 8 21 C8.33 21.99 8.66 22.98 9 24 C5.625 24.125 5.625 24.125 2 24 C0 22 0 22 -0.1953125 18.5234375 C-0.18201493 17.14049032 -0.15816232 15.75761346 -0.125 14.375 C-0.11597656 13.66859375 -0.10695313 12.9621875 -0.09765625 12.234375 C-0.07407603 10.48943902 -0.03820461 8.74467705 0 7 C-1.32 7 -2.64 7 -4 7 C-4 6.34 -4 5.68 -4 5 C-2.68 5 -1.36 5 0 5 C0 3.35 0 1.7 0 0 Z " fill="#838281" transform="translate(667,591)"/>
<path d="M0 0 C3.45835793 0.28819649 4.78380733 0.78965038 7.3125 3.25 C9.18717766 6.30503027 9.69897052 7.50514742 9 11 C6.83312718 14.2876691 5.77159691 15.74280103 2 17 C0.27204648 17.06802967 -1.45835365 17.08495645 -3.1875 17.0625 C-4.53908203 17.04896484 -4.53908203 17.04896484 -5.91796875 17.03515625 C-6.60503906 17.02355469 -7.29210937 17.01195312 -8 17 C-8 16.01 -8 15.02 -8 14 C-7.30132812 13.93941406 -6.60265625 13.87882813 -5.8828125 13.81640625 C-4.51769531 13.69072266 -4.51769531 13.69072266 -3.125 13.5625 C-2.22007812 13.48128906 -1.31515625 13.40007813 -0.3828125 13.31640625 C2.01110861 13.13010715 2.01110861 13.13010715 4 12 C4.33380814 8.62563814 4.33380814 8.62563814 4 5 C2.0995533 3.15684329 2.0995533 3.15684329 0 2 C0 1.34 0 0.68 0 0 Z " fill="#888686" transform="translate(400,590)"/>
<path d="M0 0 C0.66 0.99 1.32 1.98 2 3 C5.11610554 3.58592634 5.11610554 3.58592634 8.625 3.6875 C9.81351563 3.75324219 11.00203125 3.81898438 12.2265625 3.88671875 C13.14179687 3.92410156 14.05703125 3.96148437 15 4 C15 4.33 15 4.66 15 5 C13.51886719 5.07347656 13.51886719 5.07347656 12.0078125 5.1484375 C10.72648438 5.22320312 9.44515625 5.29796875 8.125 5.375 C6.21074219 5.47941406 6.21074219 5.47941406 4.2578125 5.5859375 C0.91938301 5.67241106 0.91938301 5.67241106 -1 8 C-3.5 8.25 -3.5 8.25 -6 8 C-6.66 7.34 -7.32 6.68 -8 6 C-7.75 2.9375 -7.75 2.9375 -7 0 C-4.27584084 -1.36207958 -2.87220643 -0.86166193 0 0 Z " fill="#88D23A" transform="translate(529,439)"/>
<path d="M0 0 C0.99 0 1.98 0 3 0 C3 8.91 3 17.82 3 27 C2.01 27 1.02 27 0 27 C0 18.09 0 9.18 0 0 Z " fill="#858381" transform="translate(750,588)"/>
<path d="M0 0 C3.80148599 0.21722777 4.96820273 0.96892539 7.75 3.6875 C10.03961434 6.65179693 10.7310291 9.23440747 11 13 C7.57421081 12.70636093 6.00818413 12.0063241 3.25 9.875 C0.60852587 6.49978306 0.24851822 4.22480975 0 0 Z " fill="#E6F3F3" transform="translate(500,446)"/>
<path d="M0 0 C0.99 0 1.98 0 3 0 C2.590361 5.22289724 1.86825715 8.34664603 -2 12 C-4.75 12.8125 -4.75 12.8125 -7 13 C-6.74126898 8.60157266 -6.43893111 6.50477078 -3.5 3.125 C-2.2625 2.073125 -2.2625 2.073125 -1 1 C-0.67 0.67 -0.34 0.34 0 0 Z " fill="#ECF4F1" transform="translate(463,446)"/>
<path d="M0 0 C1.32 0.33 2.64 0.66 4 1 C6.68149993 0.61432869 6.68149993 0.61432869 9 0 C9 0.99 9 1.98 9 3 C8.19175781 3.41894531 7.38351562 3.83789062 6.55078125 4.26953125 C3.66948247 5.79970529 3.66948247 5.79970529 3.29296875 9.13671875 C3.25816406 10.30847656 3.22335937 11.48023438 3.1875 12.6875 C3.13980469 13.86699219 3.09210938 15.04648437 3.04296875 16.26171875 C3.02878906 17.16535156 3.01460938 18.06898438 3 19 C2.01 19 1.02 19 0 19 C0 12.73 0 6.46 0 0 Z " fill="#7F7D7D" transform="translate(348,596)"/>
<path d="M0 0 C1.32 0.33 2.64 0.66 4 1 C6.68149993 0.61432869 6.68149993 0.61432869 9 0 C9 0.99 9 1.98 9 3 C8.19175781 3.41894531 7.38351562 3.83789062 6.55078125 4.26953125 C3.66948247 5.79970529 3.66948247 5.79970529 3.29296875 9.13671875 C3.25816406 10.30847656 3.22335937 11.48023438 3.1875 12.6875 C3.13980469 13.86699219 3.09210937 15.04648437 3.04296875 16.26171875 C3.02878906 17.16535156 3.01460937 18.06898438 3 19 C2.01 19 1.02 19 0 19 C0 12.73 0 6.46 0 0 Z " fill="#7E7D79" transform="translate(736,596)"/>
<path d="M0 0 C0.99 0 1.98 0 3 0 C3 0.66 3 1.32 3 2 C3.99 1.34 4.98 0.68 6 0 C6.99 0 7.98 0 9 0 C9 0.99 9 1.98 9 3 C8.19175781 3.41894531 7.38351562 3.83789062 6.55078125 4.26953125 C3.66948247 5.79970529 3.66948247 5.79970529 3.29296875 9.13671875 C3.25816406 10.30847656 3.22335937 11.48023438 3.1875 12.6875 C3.13980469 13.86699219 3.09210938 15.04648437 3.04296875 16.26171875 C3.02878906 17.16535156 3.01460938 18.06898438 3 19 C2.01 19 1.02 19 0 19 C0 12.73 0 6.46 0 0 Z " fill="#7B7977" transform="translate(435,596)"/>
<path d="M0 0 C0.99 0 1.98 0 3 0 C3 8.25 3 16.5 3 25 C2.01 25 1.02 25 0 25 C0 16.75 0 8.5 0 0 Z " fill="#838080" transform="translate(542,590)"/>
<path d="M0 0 C0 0.66 0 1.32 0 2 C1.98 2 3.96 2 6 2 C6 2.33 6 2.66 6 3 C4.7625 3.04125 3.525 3.0825 2.25 3.125 C-1.29053867 3.58407517 -1.88548286 3.88548286 -4.5625 6.5625 C-6.42849313 11.02465748 -5.96848906 13.31896956 -5 18 C-5.99 18.66 -6.98 19.32 -8 20 C-10.34728069 16.33237392 -10.4430704 13.28301385 -10 9 C-7.8562959 5.01883524 -5.03473575 0 0 0 Z " fill="#888685" transform="translate(561,590)"/>
<path d="M0 0 C3.0625 0.1875 3.0625 0.1875 5.0625 2.1875 C5.3125 4.6875 5.3125 4.6875 5.0625 7.1875 C3.0625 9.1875 3.0625 9.1875 0.5625 9.4375 C-1.9375 9.1875 -1.9375 9.1875 -3.9375 7.1875 C-4.125 4.125 -4.125 4.125 -3.9375 1.1875 C-2.9375 0.1875 -2.9375 0.1875 0 0 Z " fill="#8BD143" transform="translate(695.9375,470.8125)"/>
<path d="M0 0 C1 1 1 1 1.125 4 C1 7 1 7 0 8 C-2.9375 8.1875 -2.9375 8.1875 -6 8 C-6.66 7.34 -7.32 6.68 -8 6 C-7.75 2.9375 -7.75 2.9375 -7 0 C-4.31633121 -1.3418344 -2.84719317 -0.73004953 0 0 Z " fill="#8ED446" transform="translate(552,411)"/>
<path d="M0 0 C3.29714793 0.32971479 4.6226839 0.6226839 7 3 C6.44444444 7.55555556 6.44444444 7.55555556 5 9 C3.00041636 9.04080783 0.99954746 9.04254356 -1 9 C-1.625 5.625 -1.625 5.625 -2 2 C-1.34 1.34 -0.68 0.68 0 0 Z " fill="#91D34B" transform="translate(577,410)"/>
<path d="M0 0 C2.5625 0.1875 2.5625 0.1875 4.5625 2.1875 C4.8125 4.6875 4.8125 4.6875 4.5625 7.1875 C2.5625 9.1875 2.5625 9.1875 0 9.375 C-2.4375 9.1875 -2.4375 9.1875 -3.4375 8.1875 C-3.5625 4.6875 -3.5625 4.6875 -3.4375 1.1875 C-2.4375 0.1875 -2.4375 0.1875 0 0 Z " fill="#8FD24B" transform="translate(672.4375,454.8125)"/>
<path d="M0 0 C0.33 0 0.66 0 1 0 C1 17.82 1 35.64 1 54 C0.01 53.67 -0.98 53.34 -2 53 C-1.67 52.34 -1.34 51.68 -1 51 C-0.88127427 49.36664808 -0.82290908 47.72872646 -0.79467773 46.09130859 C-0.7647599 44.55994766 -0.7647599 44.55994766 -0.73423767 42.99765015 C-0.70916893 41.33978989 -0.70916893 41.33978989 -0.68359375 39.6484375 C-0.66281265 38.5192691 -0.64203156 37.39010071 -0.62062073 36.22671509 C-0.55508665 32.60954028 -0.49622226 28.99229119 -0.4375 25.375 C-0.39431846 22.92707556 -0.35070429 20.47915872 -0.30664062 18.03125 C-0.19940133 12.0209125 -0.09764213 6.01050065 0 0 Z " fill="#DDEECA" transform="translate(570,441)"/>
<path d="M0 0 C2.01822917 0.06510417 4.03645833 0.13020833 6.0546875 0.1953125 C5.7421875 2.5703125 5.7421875 2.5703125 5.0546875 5.1953125 C2.0546875 7.1953125 2.0546875 7.1953125 -0.6328125 6.8203125 C-1.3959375 6.6140625 -2.1590625 6.4078125 -2.9453125 6.1953125 C-3.5703125 4.3203125 -3.5703125 4.3203125 -3.9453125 2.1953125 C-1.9453125 0.1953125 -1.9453125 0.1953125 0 0 Z " fill="#E5E4DD" transform="translate(331.9453125,605.8046875)"/>
<path d="M0 0 C0.99 0 1.98 0 3 0 C3 6.27 3 12.54 3 19 C2.01 19 1.02 19 0 19 C0 12.73 0 6.46 0 0 Z " fill="#817E7F" transform="translate(472,596)"/>
<path d="M0 0 C2.2421875 1.53515625 2.2421875 1.53515625 4 4 C4.2911521 6.73682971 4.38322418 9.03940039 4.25 11.75 C4.23195313 12.44738281 4.21390625 13.14476562 4.1953125 13.86328125 C4.14838554 15.57611539 4.07664605 17.28823824 4 19 C3.67 19 3.34 19 3 19 C3 14.38 3 9.76 3 5 C-0.40887983 4.14778004 -2.80434631 3.89216245 -6.25 3.9375 C-7.58804687 3.95103516 -7.58804687 3.95103516 -8.953125 3.96484375 C-9.62859375 3.97644531 -10.3040625 3.98804688 -11 4 C-10.67 3.01 -10.34 2.02 -10 1 C-6.87057535 -0.56471233 -3.38917777 -0.69701958 0 0 Z " fill="#868384" transform="translate(337,596)"/>
<path d="M0 0 C0.33 0 0.66 0 1 0 C1.14283563 7.06582816 1.28520451 14.1316656 1.42724609 21.19750977 C1.47564065 23.60213434 1.52414277 26.00675675 1.57275391 28.41137695 C1.64253444 31.86408944 1.71193043 35.31680948 1.78125 38.76953125 C1.80312378 39.84773636 1.82499756 40.92594147 1.84753418 42.03681946 C1.86755493 43.03763046 1.88757568 44.03844147 1.90820312 45.06958008 C1.92596802 45.95116287 1.94373291 46.83274567 1.96203613 47.74104309 C1.99149329 49.49382689 2 51.24696869 2 53 C1.34 52.67 0.68 52.34 0 52 C0 34.84 0 17.68 0 0 Z " fill="#E8F5DE" transform="translate(585,463)"/>
<path d="M0 0 C1.19625 0.12375 2.3925 0.2475 3.625 0.375 C4.615 2.025 5.605 3.675 6.625 5.375 C2.335 5.375 -1.955 5.375 -6.375 5.375 C-3.90441176 0.43382353 -3.90441176 0.43382353 0 0 Z " fill="#F8F6EF" transform="translate(651.375,598.625)"/>
<path d="M0 0 C2.97 0 5.94 0 9 0 C8 4 8 4 6 6 C3.5 6.25 3.5 6.25 1 6 C0.34 5.34 -0.32 4.68 -1 4 C-0.67 2.68 -0.34 1.36 0 0 Z " fill="#EEEEE8" transform="translate(416,607)"/>
<path d="M0 0 C1 3 1 3 1.125 6.5 C1.5851281 9.97667976 1.5851281 9.97667976 3.62109375 11.12109375 C5.77991318 12.0662971 5.77991318 12.0662971 9 13 C9 13.33 9 13.66 9 14 C1.51886792 14.36792453 1.51886792 14.36792453 -0.71875 12.78125 C-2.31622732 10.56036689 -2.49095551 9.02481397 -2.6875 6.3125 C-2.75324219 5.50425781 -2.81898438 4.69601562 -2.88671875 3.86328125 C-2.92410156 3.24839844 -2.96148438 2.63351562 -3 2 C-2.01 1.34 -1.02 0.68 0 0 Z " fill="#83827F" transform="translate(714,600)"/>
<path d="M0 0 C0.99 0 1.98 0 3 0 C3 1.65 3 3.3 3 5 C4.65 5 6.3 5 8 5 C8 5.33 8 5.66 8 6 C6.02 6.33 4.04 6.66 2 7 C1.67 11.62 1.34 16.24 1 21 C0.67 21 0.34 21 0 21 C0 16.71 0 12.42 0 8 C-1.32 7.67 -2.64 7.34 -4 7 C-4 6.34 -4 5.68 -4 5 C-2.68 5 -1.36 5 0 5 C0 3.35 0 1.7 0 0 Z " fill="#888686" transform="translate(363,591)"/>
<path d="M0 0 C0.99 1.32 1.98 2.64 3 4 C2.67 4.66 2.34 5.32 2 6 C1.00393846 8.23359254 0.01972597 10.47225806 -0.96484375 12.7109375 C-1.92597673 14.83631082 -2.94179845 16.92155929 -4 19 C-4 18.01 -4 17.02 -4 16 C-4.66 16 -5.32 16 -6 16 C-4.25192871 10.53262809 -2.34205919 5.24175152 0 0 Z " fill="#868483" transform="translate(692,596)"/>
<path d="M0 0 C5.20670288 0.31555775 8.57730756 3.30128397 12 7 C12.33 7.99 12.66 8.98 13 10 C12.01 10.99 11.02 11.98 10 13 C9.5875 12.071875 9.175 11.14375 8.75 10.1875 C6.43895513 5.97809685 4.50298268 4.50099423 0 3 C0 2.01 0 1.02 0 0 Z " fill="#3EA1D4" transform="translate(500,443)"/>
<path d="M0 0 C5.28 0 10.56 0 16 0 C15 3 15 3 13 4 C10.9765625 4.16796875 10.9765625 4.16796875 8.625 4.1875 C7.46871094 4.20876953 7.46871094 4.20876953 6.2890625 4.23046875 C3.78165112 3.97801607 2.16738098 3.25193467 0 2 C0 1.34 0 0.68 0 0 Z " fill="#818283" transform="translate(506,618)"/>
<path d="M0 0 C4.78993648 -0.47899365 8.65525045 -0.8170476 12.5625 2.3125 C15 5 15 5 15 8 C12.76387469 6.92334707 10.70247967 5.80426294 8.625 4.4375 C5.71537386 2.8441333 3.27519826 2.38083701 0 2 C0 1.34 0 0.68 0 0 Z " fill="#7A7877" transform="translate(561,590)"/>
<path d="M0 0 C1.20628008 2.33214148 2.1654738 4.49642139 3 7 C-0.85623679 11.82029598 -0.85623679 11.82029598 -4.11328125 12.33203125 C-6.07856214 12.3145776 -8.04166127 12.16596091 -10 12 C-9.34 11.01 -8.68 10.02 -8 9 C-4.375 8.3125 -4.375 8.3125 -1 8 C-0.67 5.36 -0.34 2.72 0 0 Z " fill="#91908E" transform="translate(727,603)"/>
<path d="M0 0 C2.0625 0.4375 2.0625 0.4375 4 1 C3.34 1.66 2.68 2.32 2 3 C8.6 3.33 15.2 3.66 22 4 C22 4.33 22 4.66 22 5 C14.08 5 6.16 5 -2 5 C-1 1 -1 1 0 0 Z " fill="#E2F2D2" transform="translate(597,467)"/>
<path d="M0 0 C1.051875 -0.02126953 1.051875 -0.02126953 2.125 -0.04296875 C4 0.1875 4 0.1875 6 2.1875 C2.68629 4.39664 1.6553979 4.41231553 -2.1875 4.3125 C-3.08855469 4.29445313 -3.98960937 4.27640625 -4.91796875 4.2578125 C-5.60503906 4.23460937 -6.29210937 4.21140625 -7 4.1875 C-6.67 3.1975 -6.34 2.2075 -6 1.1875 C-3.77109005 0.07304502 -2.46944894 0.02269714 0 0 Z " fill="#929090" transform="translate(420,595.8125)"/>
<path d="M0 0 C1.32 0.33 2.64 0.66 4 1 C3.34 3.64 2.68 6.28 2 9 C0.68 9.33 -0.64 9.66 -2 10 C-2.17942163 6.05272412 -2.09350689 3.4019487 0 0 Z " fill="#4AA9D6" transform="translate(454,450)"/>
<path d="M0 0 C0.5259375 0.7734375 0.5259375 0.7734375 1.0625 1.5625 C3.07959451 3.39783131 3.07959451 3.39783131 6.5625 2.625 C8.2640625 2.315625 8.2640625 2.315625 10 2 C10.66 2.33 11.32 2.66 12 3 C11.67 3.99 11.34 4.98 11 6 C10.01 6 9.02 6 8 6 C6.2365625 6.0309375 6.2365625 6.0309375 4.4375 6.0625 C1 6 1 6 -1 5 C-0.67 3.35 -0.34 1.7 0 0 Z " fill="#828180" transform="translate(327,609)"/>
<path d="M0 0 C3 1 3 1 3.94921875 2.671875 C5.33170943 6.56333025 6.39357798 9.80183483 6 14 C3.59756535 11.84655717 2.39755056 10.03125235 1.3125 7 C1.06113281 6.319375 0.80976562 5.63875 0.55078125 4.9375 C0 3 0 3 0 0 Z " fill="#797877" transform="translate(693,596)"/>
<path d="M0 0 C1.96048352 0.2548029 3.91840673 0.52936944 5.875 0.8125 C7.51082031 1.03873047 7.51082031 1.03873047 9.1796875 1.26953125 C12 2 12 2 14 5 C12.41705218 5.05437607 10.83355744 5.09296271 9.25 5.125 C8.36828125 5.14820313 7.4865625 5.17140625 6.578125 5.1953125 C3.8864142 4.99139502 2.30095026 4.36551721 0 3 C0 2.01 0 1.02 0 0 Z " fill="#908F8E" transform="translate(264,610)"/>
<path d="M0 0 C1.98 0.99 1.98 0.99 4 2 C3.01 3.485 3.01 3.485 2 5 C1.63566627 7.12337771 1.63566627 7.12337771 1.5859375 9.44921875 C1.54726563 10.29677734 1.50859375 11.14433594 1.46875 12.01757812 C1.4378125 12.89865234 1.406875 13.77972656 1.375 14.6875 C1.33632813 15.58017578 1.29765625 16.47285156 1.2578125 17.39257812 C1.16359782 19.5948462 1.07798412 21.79710722 1 24 C0.67 24 0.34 24 0 24 C0 16.08 0 8.16 0 0 Z " fill="#777476" transform="translate(616,590)"/>
<path d="M0 0 C0.66 0 1.32 0 2 0 C2 0.66 2 1.32 2 2 C2.66 2.33 3.32 2.66 4 3 C2.68 5.31 1.36 7.62 0 10 C-0.66 9.34 -1.32 8.68 -2 8 C-2.99 8.495 -2.99 8.495 -4 9 C-2.80100302 5.9168649 -1.52299523 2.93720508 0 0 Z " fill="#3E8EC8" transform="translate(506,481)"/>
<path d="M0 0 C0.99 0.33 1.98 0.66 3 1 C1.71451591 2.33929505 0.42141845 3.67128643 -0.875 5 C-1.59429688 5.7425 -2.31359375 6.485 -3.0546875 7.25 C-5 9 -5 9 -7 9 C-6.75881648 5.74402242 -5.47775788 4.2723696 -3.125 2.1875 C-2.09375 1.465625 -1.0625 0.74375 0 0 Z " fill="#7B7977" transform="translate(764,596)"/>
<path d="M0 0 C0 0.66 0 1.32 0 2 C-3.01490557 3.00496852 -5.04181692 3.10335303 -8.1875 3.0625 C-9.53908203 3.04896484 -9.53908203 3.04896484 -10.91796875 3.03515625 C-11.60503906 3.02355469 -12.29210937 3.01195312 -13 3 C-13 2.01 -13 1.02 -13 0 C-11.39679026 -0.19551338 -9.79237014 -0.38111983 -8.1875 -0.5625 C-7.29417969 -0.66691406 -6.40085937 -0.77132812 -5.48046875 -0.87890625 C-3 -1 -3 -1 0 0 Z " fill="#8B8887" transform="translate(405,604)"/>
<path d="M0 0 C0.66 0.66 1.32 1.32 2 2 C3.98356483 2.71408334 5.98315437 3.38617742 8 4 C8 4.66 8 5.32 8 6 C4.625 6.125 4.625 6.125 1 6 C0.34 5.34 -0.32 4.68 -1 4 C-0.625 1.875 -0.625 1.875 0 0 Z " fill="#868584" transform="translate(668,609)"/>
<path d="M0 0 C1.5778125 0.9590625 1.5778125 0.9590625 3.1875 1.9375 C6.10828412 3.61754452 8.6171743 4.58996052 12 5 C12 5.33 12 5.66 12 6 C3.80743982 6.4726477 3.80743982 6.4726477 0.4375 4.5 C-0.036875 4.005 -0.51125 3.51 -1 3 C-0.67 2.01 -0.34 1.02 0 0 Z " fill="#787876" transform="translate(555,608)"/>
<path d="M0 0 C0.66 0 1.32 0 2 0 C2.33 1.32 2.66 2.64 3 4 C-0.18762365 6.12508244 -2.26512223 6.5020163 -6 7 C-5.04882866 5.8274869 -4.08882991 4.66212985 -3.125 3.5 C-2.59132813 2.8503125 -2.05765625 2.200625 -1.5078125 1.53125 C-0.76144531 0.77328125 -0.76144531 0.77328125 0 0 Z " fill="#8BCD4A" transform="translate(783,440)"/>
<path d="M0 0 C0.99 0 1.98 0 3 0 C2.01 3.3 1.02 6.6 0 10 C-0.66 10 -1.32 10 -2 10 C-1.125 2.25 -1.125 2.25 0 0 Z " fill="#7E7D7B" transform="translate(706,596)"/>
<path d="M0 0 C2.62187494 1.04874998 3.79371361 1.64931313 5.25 4.125 C5.4975 4.74375 5.745 5.3625 6 6 C4.02 6 2.04 6 0 6 C-1.24546405 3.50907189 -0.7767578 2.58919267 0 0 Z " fill="#3DA0DA" transform="translate(515,481)"/>
<path d="M0 0 C-0.375 1.9375 -0.375 1.9375 -1 4 C-4.21451269 5.60725635 -7.43612536 5.05748185 -11 5 C-8.33297073 0.99945609 -4.80529469 0 0 0 Z " fill="#92918F" transform="translate(659,610)"/>
<path d="M0 0 C2 2 2 2 2.125 4.625 C2.08375 5.40875 2.0425 6.1925 2 7 C1.67 6.01 1.34 5.02 1 4 C-0.65 4.66 -2.3 5.32 -4 6 C-4 5.34 -4 4.68 -4 4 C-5.32 3.67 -6.64 3.34 -8 3 C-6.865625 2.690625 -5.73125 2.38125 -4.5625 2.0625 C-1.21224901 1.37075469 -1.21224901 1.37075469 0 0 Z " fill="#9A9997" transform="translate(520,608)"/>
<path d="M0 0 C3.96 0 7.92 0 12 0 C12 0.33 12 0.66 12 1 C10.02 1.33 8.04 1.66 6 2 C5.67 3.32 5.34 4.64 5 6 C3.35 4.02 1.7 2.04 0 0 Z " fill="#FAF9FB" transform="translate(639,461)"/>
<path d="M0 0 C0.99 0.33 1.98 0.66 3 1 C2.525625 1.5775 2.05125 2.155 1.5625 2.75 C0.0515133 4.92582084 -0.54036151 6.42602448 -1 9 C-1.66 9 -2.32 9 -3 9 C-2.25 2.25 -2.25 2.25 0 0 Z " fill="#EFEEE9" transform="translate(717,599)"/>
<path d="M0 0 C0.66 0 1.32 0 2 0 C2.19622241 4.21878192 1.80230168 7.17010894 0 11 C-0.33 11 -0.66 11 -1 11 C-1.66 8.36 -2.32 5.72 -3 3 C-2.01 3 -1.02 3 0 3 C0 2.01 0 1.02 0 0 Z " fill="#7E7D7D" transform="translate(522,596)"/>
<path d="M0 0 C0.66 0.99 1.32 1.98 2 3 C-0.52475462 4.26237731 -2.31200466 4.09856404 -5.125 4.0625 C-6.03507813 4.05347656 -6.94515625 4.04445313 -7.8828125 4.03515625 C-8.58148437 4.02355469 -9.28015625 4.01195312 -10 4 C-7.0163065 0.57563792 -4.4751616 0.42218506 0 0 Z " fill="#8D8D8A" transform="translate(569,611)"/>
<path d="M0 0 C2 1.0625 2 1.0625 4 3 C4.25 6.6875 4.25 6.6875 4 10 C1.38952199 8.694761 1.31933577 7.64173426 0.375 4.9375 C0.11460937 4.20402344 -0.14578125 3.47054687 -0.4140625 2.71484375 C-0.60742188 2.14894531 -0.80078125 1.58304688 -1 1 C-0.67 0.67 -0.34 0.34 0 0 Z " fill="#7B7B78" transform="translate(726,598)"/>
<path d="M0 0 C0.66 0.99 1.32 1.98 2 3 C0.02 4.32 -1.96 5.64 -4 7 C-4.66 6.34 -5.32 5.68 -6 5 C-4.02 3.35 -2.04 1.7 0 0 Z " fill="#3BA2D4" transform="translate(461,444)"/>
<path d="M0 0 C2.97 0 5.94 0 9 0 C9 2.97 9 5.94 9 9 C8.01 7.68 7.02 6.36 6 5 C6.66 3.68 7.32 2.36 8 1 C5.36 1 2.72 1 0 1 C0 0.67 0 0.34 0 0 Z " fill="#989795" transform="translate(417,606)"/>
<path d="M0 0 C0.99 0.495 0.99 0.495 2 1 C3.67654729 0.72057545 5.34608154 0.39171753 7 0 C7 0.99 7 1.98 7 3 C5.35 3.66 3.7 4.32 2 5 C1.34 4.34 0.68 3.68 0 3 C0 2.01 0 1.02 0 0 Z " fill="#8B8A8A" transform="translate(350,596)"/>
<path d="M0 0 C1.65 0 3.3 0 5 0 C3.515 2.475 3.515 2.475 2 5 C1.01 4.67 0.02 4.34 -1 4 C-0.67 2.68 -0.34 1.36 0 0 Z " fill="#F7F6F0" transform="translate(329,607)"/>
<path d="M0 0 C2 1.8125 2 1.8125 4 4 C4 4.99 4 5.98 4 7 C2.68 6.67 1.36 6.34 0 6 C-0.38218767 4.34385343 -0.71395102 2.67542976 -1 1 C-0.67 0.67 -0.34 0.34 0 0 Z " fill="#7B7978" transform="translate(266,595)"/>
<path d="M0 0 C0.33 0.66 0.66 1.32 1 2 C0.34 2 -0.32 2 -1 2 C-1.33 2.66 -1.66 3.32 -2 4 C-2.66 3.01 -3.32 2.02 -4 1 C-6.56282742 0.27034634 -6.56282742 0.27034634 -9 0 C-9 -0.33 -9 -0.66 -9 -1 C-5.25616401 -2.03995444 -3.27217674 -2.22040564 0 0 Z " fill="#8F8E8B" transform="translate(659,599)"/>
<path d="M0 0 C3.91606575 0.53400897 6.39338934 1.19669467 10 3 C7.03 3 4.06 3 1 3 C0.67 2.01 0.34 1.02 0 0 Z " fill="#787979" transform="translate(506,618)"/>
<path d="M0 0 C0.66 0 1.32 0 2 0 C1.67 2.31 1.34 4.62 1 7 C0.01 7 -0.98 7 -2 7 C-1.34 4.69 -0.68 2.38 0 0 Z " fill="#726F71" transform="translate(406,597)"/>
<path d="M0 0 C3.375 -0.125 3.375 -0.125 7 0 C7.66 0.66 8.32 1.32 9 2 C8.01 2.66 7.02 3.32 6 4 C3.53199953 2.84826645 1.95216435 1.95216435 0 0 Z " fill="#8C8A89" transform="translate(294,596)"/>
<path d="M0 0 C0.66 0.33 1.32 0.66 2 1 C1.67 2.98 1.34 4.96 1 7 C0.34 6.34 -0.32 5.68 -1 5 C-1.66 5.99 -2.32 6.98 -3 8 C-2.25 2.25 -2.25 2.25 0 0 Z " fill="#949290" transform="translate(267,591)"/>
<path d="M0 0 C0.99 0.33 1.98 0.66 3 1 C2.67 3.31 2.34 5.62 2 8 C1.34 8 0.68 8 0 8 C0 5.36 0 2.72 0 0 Z " fill="#777676" transform="translate(450,607)"/>
<path d="M0 0 C0.99 0.66 1.98 1.32 3 2 C1.35 3.65 -0.3 5.3 -2 7 C-2.125 4.625 -2.125 4.625 -2 2 C-1.34 1.34 -0.68 0.68 0 0 Z " fill="#7B7878" transform="translate(327,605)"/>
<path d="M0 0 C4.455 0.99 4.455 0.99 9 2 C9 2.33 9 2.66 9 3 C6.69 3.66 4.38 4.32 2 5 C1.34 4.34 0.68 3.68 0 3 C0 2.01 0 1.02 0 0 Z " fill="#92918F" transform="translate(484,596)"/>
<path d="M0 0 C2.97 0 5.94 0 9 0 C9 0.33 9 0.66 9 1 C5.7 1.66 2.4 2.32 -1 3 C-0.67 2.01 -0.34 1.02 0 0 Z " fill="#7C7879" transform="translate(414,597)"/>
<path d="M0 0 C2.475 0.99 2.475 0.99 5 2 C5 3.65 5 5.3 5 7 C3.29115995 5.37660195 1.62553283 3.70680947 0 2 C0 1.34 0 0.68 0 0 Z " fill="#EBF1E1" transform="translate(590,519)"/>
</svg>
